<svg xmlns="http://www.w3.org/2000/svg" width="1400" height="900" viewBox="0 0 1400 900" fill="none">
  <defs>
    <linearGradient id="glow" x1="0" y1="0" x2="1" y2="1">
      <stop offset="0%" stop-color="#3ec7ff" stop-opacity="0.22"/>
      <stop offset="100%" stop-color="#7cf0ff" stop-opacity="0.05"/>
    </linearGradient>
  </defs>

  <!-- Tech hex lattice -->
  <g stroke="#3ec7ff" stroke-opacity="0.102" stroke-width="1.2">
    <path d="M40 60h56l28 48-28 48H40l-28-48zM124 60h56l28 48-28 48h-56l-28-48z"/>
    <path d="M82 156h56l28 48-28 48H82l-28-48z"/>
    <path d="M1180 40h56l28 48-28 48h-56l-28-48zM1264 40h56l28 48-28 48h-56l-28-48z"/>
    <path d="M1222 136h56l28 48-28 48h-56l-28-48z"/>
    <path d="M60 720h56l28 48-28 48H60l-28-48zM144 720h56l28 48-28 48h-56l-28-48z"/>
  </g>

  <!-- Radar rings -->
  <g stroke="#3ec7ff" stroke-opacity="0.174" stroke-width="1.5">
    <circle cx="220" cy="210" r="46"/>
    <circle cx="220" cy="210" r="78"/>
    <circle cx="220" cy="210" r="112"/>
    <path d="M220 210l96-42" stroke-opacity="0.29"/>
    <circle cx="1180" cy="680" r="40"/>
    <circle cx="1180" cy="680" r="72"/>
    <circle cx="1180" cy="680" r="104"/>
    <path d="M1180 680l-88-36" stroke-opacity="0.29"/>
  </g>

  <!-- Fighter jet -->
  <g stroke="url(#glow)" stroke-width="2.2" stroke-linejoin="round">
    <path d="M180 120l120 18 34-40 22 8-10 40 78 14-18 16-70-4-24 36-28-28-54 10-20-30z"/>
    <path d="M252 148h54" stroke-opacity="0.32"/>
  </g>

  <!-- Stealth-ish plane -->
  <g stroke="#7cf0ff" stroke-opacity="0.261" stroke-width="2" stroke-linejoin="round">
    <path d="M980 110l140 10 48-28 18 16-20 30 70 8-24 18-66-2-30 34-26-22-48 6-22-28z"/>
  </g>

  <!-- Fixed-wing UAV / drone -->
  <g stroke="#3ec7ff" stroke-opacity="0.29" stroke-width="2" stroke-linejoin="round">
    <path d="M430 250c40-6 86-4 120 10l34-28 18 10-12 30 46 12-16 14-42-2-18 28-22-18-40 6c-28-10-58-18-90-16l-20-22z"/>
    <circle cx="500" cy="268" r="7" fill="#3ec7ff" fill-opacity="0.174"/>
    <path d="M470 268h60M500 250v36" stroke-opacity="0.32"/>
  </g>

  <!-- Quadcopter drone -->
  <g stroke="#47e0a0" stroke-opacity="0.261" stroke-width="2">
    <rect x="780" y="250" width="70" height="28" rx="6"/>
    <circle cx="770" cy="246" r="16"/>
    <circle cx="860" cy="246" r="16"/>
    <circle cx="770" cy="282" r="16"/>
    <circle cx="860" cy="282" r="16"/>
    <path d="M786 246h-8M852 246h8M786 282h-8M852 282h8" stroke-opacity="0.32"/>
    <circle cx="815" cy="264" r="5" fill="#47e0a0" fill-opacity="0.217"/>
  </g>

  <!-- Ballistic missile -->
  <g stroke="#ffc857" stroke-opacity="0.29" stroke-width="2" stroke-linejoin="round">
    <path d="M160 520l18-70 14 4-8 70z"/>
    <path d="M160 520l-16 28 20-6 18 18 8-22z"/>
    <path d="M192 524l16 26-22-4-10-20z"/>
    <path d="M168 456c8-18 18-18 26 0" stroke-opacity="0.32"/>
  </g>

  <!-- Cruise missile -->
  <g stroke="#ffc857" stroke-opacity="0.261" stroke-width="2" stroke-linejoin="round">
    <path d="M560 520h150l28-10 12 12-12 12-28-8H560l-18-8z"/>
    <path d="M620 526v28l18-8 8 16 14-20"/>
    <path d="M700 514v-22l20 10"/>
  </g>

  <!-- Rocket / booster -->
  <g stroke="#ff5d6c" stroke-opacity="0.261" stroke-width="2" stroke-linejoin="round">
    <path d="M1040 420c0-40 18-78 34-104 16 26 34 64 34 104v120h-68z"/>
    <path d="M1040 540l-24 48 34-14 24 28 24-28 34 14-24-48"/>
    <path d="M1054 450h40M1054 480h40" stroke-opacity="0.32"/>
    <circle cx="1074" cy="400" r="8" fill="#ff5d6c" fill-opacity="0.174"/>
  </g>

  <!-- Vertical launch rockets -->
  <g stroke="#3ec7ff" stroke-opacity="0.232" stroke-width="2">
    <path d="M300 760v-90l12-28 12 28v90l-12 18z"/>
    <path d="M340 770v-70l10-22 10 22v70l-10 14z"/>
    <path d="M376 780v-54l8-16 8 16v54l-8 12z"/>
  </g>

  <!-- Satellite -->
  <g stroke="#7cf0ff" stroke-opacity="0.261" stroke-width="2">
    <rect x="640" y="120" width="36" height="24" rx="3"/>
    <path d="M620 126h20M676 126h20M620 138h20M676 138h20"/>
    <circle cx="658" cy="132" r="4" fill="#7cf0ff" fill-opacity="0.217"/>
    <path d="M658 144v22" stroke-opacity="0.32"/>
  </g>

  <!-- Constellation / flight paths -->
  <g stroke="#3ec7ff" stroke-opacity="0.145" stroke-width="1.4" stroke-dasharray="6 8">
    <path d="M120 300C220 240 340 220 460 260S700 360 820 320 1040 200 1220 240"/>
    <path d="M80 640C220 600 360 620 500 580S820 500 980 540 1200 620 1340 600"/>
  </g>

  <!-- Targeting reticles -->
  <g stroke="#47e0a0" stroke-opacity="0.203" stroke-width="1.5">
    <circle cx="920" cy="470" r="28"/>
    <path d="M920 434v16M920 490v16M884 470h16M940 470h16"/>
    <circle cx="400" cy="620" r="22"/>
    <path d="M400 592v12M400 636v12M372 620h12M416 620h12"/>
  </g>
</svg>
